<?xml version="1.0" standalone="no"?>
<!DOCTYPE svg PUBLIC "-//W3C//DTD SVG 20010904//EN"
 "http://www.w3.org/TR/2001/REC-SVG-20010904/DTD/svg10.dtd">
<svg version="1.0" xmlns="http://www.w3.org/2000/svg"
 width="306.000000pt" height="306.000000pt" viewBox="0 0 306.000000 306.000000"
 preserveAspectRatio="xMidYMid meet">
<metadata>
Created by potrace 1.11, written by Peter Selinger 2001-2013
</metadata>
<g transform="translate(0.000000,306.000000) scale(0.100000,-0.100000)"
fill="#000000" stroke="none">
<path d="M1175 2920 c-44 -3 -90 -11 -101 -18 -31 -16 -44 -63 -44 -152 0 -72
-1 -77 -29 -97 -43 -33 -120 -140 -156 -218 -72 -157 -104 -381 -85 -590 25
-272 114 -525 244 -694 95 -124 209 -181 359 -181 42 0 78 -3 80 -7 3 -5 8
-119 12 -254 l8 -246 -26 -7 c-23 -5 -26 -12 -32 -75 -4 -38 -4 -103 0 -145
l7 -76 214 0 214 0 0 23 c0 12 -8 79 -17 150 -14 105 -20 127 -34 127 -19 0
-25 65 -35 410 l-5 205 66 65 c55 53 135 164 135 186 0 3 8 24 19 47 35 79 44
176 37 412 -9 284 -21 423 -46 532 -54 233 -143 376 -277 445 -84 44 -105 49
-218 57 l-90 6 2 48 c3 54 -9 62 -25 15 -5 -18 -10 -25 -11 -16 -1 10 -12 20
-25 24 -21 5 -125 -6 -205 -22 -23 -5 -32 -4 -27 4 8 14 95 32 151 32 25 0 45
5 45 10 0 6 -6 9 -12 8 -7 0 -49 -4 -93 -8z m175 -184 c0 -58 -4 -107 -9 -110
-14 -9 -272 -38 -278 -32 -3 3 -8 50 -11 104 -5 114 -10 108 96 118 l67 7 -26
-29 c-37 -40 -58 -86 -66 -140 l-6 -47 49 8 c27 4 52 9 55 11 4 2 9 27 13 55
4 29 14 65 21 80 14 26 72 79 88 79 4 0 7 -47 7 -104z m146 28 c111 -53 254
-325 299 -569 9 -49 20 -106 25 -125 31 -123 38 -542 11 -640 -57 -208 -103
-308 -160 -345 -74 -49 -282 -99 -377 -92 -216 16 -420 314 -494 722 -14 75
-26 335 -15 335 4 0 16 -11 26 -24 47 -60 165 -96 243 -75 88 24 156 143 142
248 -22 160 -162 237 -301 166 -27 -13 -51 -22 -53 -20 -11 10 69 156 117 213
59 70 78 77 83 30 l3 -33 110 2 c77 1 126 7 165 20 l55 18 -3 82 c-2 45 -1 87
3 93 10 16 83 12 121 -6z m-478 -571 c-2 -17 -9 -28 -18 -28 -9 0 -16 11 -18
28 -3 22 1 27 18 27 17 0 21 -5 18 -27z m442 -1772 c0 -26 43 -58 94 -72 44
-12 135 -5 168 12 11 6 22 8 25 5 3 -2 -12 -12 -32 -20 -72 -30 -218 -13 -267
31 -18 16 -24 44 -11 56 12 13 23 7 23 -12z"/>
<path d="M1474 2390 c-99 -23 -184 -133 -184 -237 0 -62 54 -144 117 -177 171
-87 336 8 336 194 -1 168 -111 258 -269 220z m88 -177 c6 -24 -1 -43 -17 -43
-16 0 -26 25 -19 45 8 20 31 19 36 -2z"/>
<path d="M1226 1620 c-6 -91 -2 -188 10 -248 4 -21 9 -23 52 -20 l47 3 3 90
c1 50 -1 131 -5 180 l-8 90 -46 3 -46 3 -7 -101z"/>
</g>
</svg>
